<?xml version="1.0" encoding="utf-8"?>
<!-- Generator: Adobe Illustrator 24.3.0, SVG Export Plug-In . SVG Version: 6.00 Build 0)  -->
<svg version="1.1" id="Layer_1" xmlns="http://www.w3.org/2000/svg" xmlns:xlink="http://www.w3.org/1999/xlink" x="0px" y="0px"
	 viewBox="0 0 141.6 141.6" style="enable-background:new 0 0 141.6 141.6;" xml:space="preserve">
<style type="text/css">
	.st0{fill:#A7D1A0;}
	.st1{fill:#6DB1BF;}
	.st2{fill:#707070;}
</style>
<g>
	<path class="st0" d="M83.3,58.4H59v24.3L33.6,108H9.8V83.2h24.3V58.4H9.8V33.6h24.3V9.2H59v24.3h24.8V9.2h24.8v23.8L83.3,58.4z"/>
	<polygon class="st1" points="83.3,58.4 83.8,58.4 83.8,83.2 59,83.2 59,82.7 33.6,108 34.1,108 34.1,132.4 59,132.4 59,108 
		83.8,108 83.8,132.4 108.6,132.4 108.6,108 132.9,108 132.9,83.2 108.6,83.2 108.6,58.4 132.9,58.4 132.9,33.6 108.6,33.6 
		108.6,33.1 	"/>
</g>
<g>
	<path class="st2" d="M83.3,58.4H59v24.3L33.6,108H9.8V83.2h24.3V58.4H9.8V33.6h24.3V9.2H59v24.3h24.8V9.2h24.8v23.8L83.3,58.4z"/>
	<polygon class="st2" points="83.3,58.4 83.8,58.4 83.8,83.2 59,83.2 59,82.7 33.6,108 34.1,108 34.1,132.4 59,132.4 59,108 
		83.8,108 83.8,132.4 108.6,132.4 108.6,108 132.9,108 132.9,83.2 108.6,83.2 108.6,58.4 132.9,58.4 132.9,33.6 108.6,33.6 
		108.6,33.1 	"/>
</g>
</svg>
