<?xml version="1.0" encoding="UTF-8" standalone="no"?>
<!-- Generator: Adobe Illustrator 24.3.0, SVG Export Plug-In . SVG Version: 6.00 Build 0)  -->

<svg
   version="1.1"
   id="Layer_1"
   x="0px"
   y="0px"
   viewBox="0 0 857.9 626"
   style="enable-background:new 0 0 857.9 626;"
   xml:space="preserve"
   sodipodi:docname="multi-user-icon.svg"
   inkscape:version="1.1.2 (0a00cf5339, 2022-02-04)"
   xmlns:inkscape="http://www.inkscape.org/namespaces/inkscape"
   xmlns:sodipodi="http://sodipodi.sourceforge.net/DTD/sodipodi-0.dtd"
   xmlns="http://www.w3.org/2000/svg"
   xmlns:svg="http://www.w3.org/2000/svg"><defs
   id="defs11" /><sodipodi:namedview
   id="namedview9"
   pagecolor="#ffffff"
   bordercolor="#666666"
   borderopacity="1.0"
   inkscape:pageshadow="2"
   inkscape:pageopacity="0.0"
   inkscape:pagecheckerboard="0"
   showgrid="false"
   inkscape:zoom="0.66773163"
   inkscape:cx="157.99761"
   inkscape:cy="404.35407"
   inkscape:window-width="1920"
   inkscape:window-height="1019"
   inkscape:window-x="0"
   inkscape:window-y="29"
   inkscape:window-maximized="1"
   inkscape:current-layer="Layer_1" />


<g
   id="g16"
   transform="translate(-60.829,-13.157)"><path
     d="m 555.7,323 c -83.5,0 -151.4,-67.9 -151.4,-151.4 0,-83.5 67.9,-151.4 151.4,-151.4 83.5,0 151.4,67.9 151.4,151.4 0,83.5 -67.9,151.4 -151.4,151.4 z m 0,-275.4 c -68.4,0 -124,55.6 -124,124 0,68.4 55.6,124 124,124 68.4,0 124,-55.6 124,-124 0,-68.4 -55.6,-124 -124,-124 z M 281,626 c 12.5,-143 130.9,-255.4 274.7,-255.4 143.8,0 262.2,112.5 274.7,255.4 h 27.5 C 845.3,467.9 714.6,343.2 555.7,343.2 396.8,343.2 266.1,467.9 253.5,626 Z"
     id="path2" /><path
     d="m 462,318.5 c -13.3,3.8 -27.3,5.9 -41.7,5.9 C 336.9,324.4 269,256.5 269,173 269,89.5 336.9,21.6 420.3,21.7 c 13.4,0 26.3,1.7 38.7,5 -9.9,6.7 -19.2,14.3 -27.5,22.8 -3.7,-0.3 -7.4,-0.5 -11.1,-0.5 -68.3,0 -124,55.6 -124,124 0,68.4 55.6,124 124,124 4.3,0 8.8,-0.4 13.2,-1.2 8.6,8.5 18.2,16.2 28.4,22.7 z"
     id="path4" /><path
     d="M 399.4,356.3 C 374.6,370.6 352,388.4 332.3,409 250.6,452 192.7,535.5 184.1,633.1 h -27.5 c 11,-137.8 111.8,-250.3 242.8,-276.8 z"
     id="path6" /></g>
</svg>
