<?xml version="1.0" encoding="utf-8"?>
<!-- Generator: Adobe Illustrator 24.3.0, SVG Export Plug-In . SVG Version: 6.00 Build 0)  -->
<svg version="1.1" id="Layer_1" xmlns="http://www.w3.org/2000/svg" xmlns:xlink="http://www.w3.org/1999/xlink" x="0px" y="0px"
	 viewBox="0 0 857.9 626" style="enable-background:new 0 0 857.9 626;" xml:space="preserve">
<path d="M555.7,323c-83.5,0-151.4-67.9-151.4-151.4S472.2,20.2,555.7,20.2s151.4,67.9,151.4,151.4S639.2,323,555.7,323z M555.7,47.6
	c-68.4,0-124,55.6-124,124s55.6,124,124,124s124-55.6,124-124S624.1,47.6,555.7,47.6z M281,626c12.5-143,130.9-255.4,274.7-255.4
	S817.9,483.1,830.4,626h27.5c-12.6-158.1-143.3-282.8-302.2-282.8S266.1,467.9,253.5,626H281L281,626z"/>
<path d="M462,318.5c-13.3,3.8-27.3,5.9-41.7,5.9C336.9,324.4,269,256.5,269,173S336.9,21.6,420.3,21.7c13.4,0,26.3,1.7,38.7,5
	c-9.9,6.7-19.2,14.3-27.5,22.8c-3.7-0.3-7.4-0.5-11.1-0.5c-68.3,0-124,55.6-124,124s55.6,124,124,124c4.3,0,8.8-0.4,13.2-1.2
	C442.2,304.3,451.8,312,462,318.5z"/>
<path d="M399.4,356.3c-24.8,14.3-47.4,32.1-67.1,52.7c-81.7,43-139.6,126.5-148.2,224.1h-27.5C167.6,495.3,268.4,382.8,399.4,356.3z
	"/>
</svg>
