<?xml version="1.0" encoding="utf-8"?>
<!-- Generator: Adobe Illustrator 24.3.0, SVG Export Plug-In . SVG Version: 6.00 Build 0)  -->
<svg version="1.1" id="Layer_1" xmlns="http://www.w3.org/2000/svg" xmlns:xlink="http://www.w3.org/1999/xlink" x="0px" y="0px"
	 viewBox="0 0 857.9 626" style="enable-background:new 0 0 857.9 626;" xml:space="preserve">
<g>
	<path d="M303,323c-83.5,0-151.4-67.9-151.4-151.4S219.5,20.2,303,20.2s151.4,67.9,151.4,151.4S386.5,323,303,323z M303,47.6
		c-68.4,0-124,55.6-124,124s55.6,124,124,124s124-55.6,124-124S371.4,47.6,303,47.6z M28.3,626C40.8,483,159.2,370.6,303,370.6
		S565.2,483.1,577.7,626h27.5C592.6,467.9,461.9,343.2,303,343.2S13.4,467.9,0.8,626H28.3L28.3,626z"/>
</g>
</svg>
