<?xml version="1.0" encoding="UTF-8" standalone="no"?>
<!-- Generator: Adobe Illustrator 24.3.0, SVG Export Plug-In . SVG Version: 6.00 Build 0)  -->

<svg
   version="1.1"
   id="Layer_1"
   x="0px"
   y="0px"
   viewBox="0 0 857.9 626"
   style="enable-background:new 0 0 857.9 626;"
   xml:space="preserve"
   sodipodi:docname="single-user-icon.svg"
   inkscape:version="1.1.2 (0a00cf5339, 2022-02-04)"
   xmlns:inkscape="http://www.inkscape.org/namespaces/inkscape"
   xmlns:sodipodi="http://sodipodi.sourceforge.net/DTD/sodipodi-0.dtd"
   xmlns="http://www.w3.org/2000/svg"
   xmlns:svg="http://www.w3.org/2000/svg"><defs
   id="defs9" /><sodipodi:namedview
   id="namedview7"
   pagecolor="#ffffff"
   bordercolor="#666666"
   borderopacity="1.0"
   inkscape:pageshadow="2"
   inkscape:pageopacity="0.0"
   inkscape:pagecheckerboard="0"
   showgrid="false"
   inkscape:zoom="0.66773163"
   inkscape:cx="249.35167"
   inkscape:cy="404.35407"
   inkscape:window-width="1920"
   inkscape:window-height="1019"
   inkscape:window-x="0"
   inkscape:window-y="29"
   inkscape:window-maximized="1"
   inkscape:current-layer="g4" />
<g
   id="g4">
	<path
   d="m 436.33827,314.18304 c -83.5,0 -151.4,-67.9 -151.4,-151.4 0,-83.499995 67.9,-151.399995 151.4,-151.399995 83.5,0 151.4,67.9 151.4,151.399995 0,83.5 -67.9,151.4 -151.4,151.4 z m 0,-275.399995 c -68.4,0 -124,55.599999 -124,123.999995 0,68.4 55.6,124 124,124 68.4,0 124,-55.6 124,-124 0,-68.399996 -55.6,-123.999995 -124,-123.999995 z m -274.7,578.399995 c 12.5,-143 130.9,-255.4 274.7,-255.4 143.8,0 262.2,112.5 274.7,255.4 h 27.5 c -12.6,-158.1 -143.3,-282.8 -302.2,-282.8 -158.9,0 -289.6,124.7 -302.2,282.8 z"
   id="path2" />
</g>
</svg>
